<svg width="40" height="40" fill="none" xmlns="http://www.w3.org/2000/svg"><g clip-path="url(#clip0_606_31)"><path d="M20 40C8.956 40 0 31.044 0 20S8.956 0 20 0s20 8.956 20 20-8.956 20-20 20z" fill="url(#paint0_linear_606_31)"/><path d="M20 8.808c3.644 0 4.076.012 5.516.08 1.332.06 2.056.284 2.536.472a4.242 4.242 0 011.568 1.02c.476.476.772.932 1.02 1.568.188.48.408 1.204.472 2.536.064 1.44.08 1.872.08 5.516s-.012 4.076-.08 5.516c-.06 1.332-.284 2.056-.472 2.536a4.242 4.242 0 01-1.02 1.568 4.242 4.242 0 01-1.568 1.02c-.48.188-1.204.408-2.536.472-1.44.064-1.872.08-5.516.08s-4.076-.012-5.516-.08c-1.332-.06-2.056-.284-2.536-.472a4.242 4.242 0 01-1.568-1.02 4.242 4.242 0 01-1.02-1.568c-.188-.48-.408-1.204-.472-2.536-.064-1.44-.08-1.872-.08-5.516s.012-4.076.08-5.516c.06-1.332.284-2.056.472-2.536a4.242 4.242 0 011.02-1.568 4.242 4.242 0 011.568-1.02c.48-.188 1.204-.408 2.536-.472 1.44-.068 1.872-.08 5.516-.08zm0-2.46c-3.708 0-4.172.016-5.628.084-1.452.068-2.444.296-3.316.636A6.59 6.59 0 008.64 8.64a6.72 6.72 0 00-1.576 2.42c-.336.868-.568 1.86-.636 3.316-.068 1.456-.084 1.92-.084 5.628s.016 4.172.084 5.628c.068 1.452.296 2.444.636 3.316A6.673 6.673 0 008.64 31.36a6.72 6.72 0 002.42 1.576c.868.336 1.86.568 3.316.636 1.456.068 1.92.084 5.628.084s4.172-.016 5.628-.084c1.452-.068 2.444-.296 3.316-.636a6.673 6.673 0 002.412-1.576 6.72 6.72 0 001.576-2.42c.336-.868.568-1.86.636-3.316.068-1.456.084-1.92.084-5.628s-.016-4.172-.084-5.628c-.068-1.452-.296-2.444-.636-3.316A6.673 6.673 0 0031.36 8.64a6.72 6.72 0 00-2.42-1.576c-.868-.336-1.86-.568-3.316-.636-1.452-.064-1.916-.08-5.624-.08z" fill="#fff"/><path d="M20 12.988a7.013 7.013 0 100 14.025 7.013 7.013 0 000-14.025zm0 11.564a4.552 4.552 0 110-9.104 4.552 4.552 0 010 9.104zm7.288-10.2a1.64 1.64 0 100-3.28 1.64 1.64 0 000 3.28z" fill="#fff"/></g><defs><linearGradient id="paint0_linear_606_31" x1="5.858" y1="34.142" x2="34.142" y2="5.858" gradientUnits="userSpaceOnUse"><stop stop-color="#FFD521"/><stop offset=".055" stop-color="#FFD020"/><stop offset=".124" stop-color="#FEC01E"/><stop offset=".2" stop-color="#FCA71B"/><stop offset=".282" stop-color="#FA8316"/><stop offset=".368" stop-color="#F85510"/><stop offset=".456" stop-color="#F51E09"/><stop offset=".5" stop-color="#F30005"/><stop offset=".503" stop-color="#F20007"/><stop offset=".597" stop-color="#E1003B"/><stop offset=".688" stop-color="#D30067"/><stop offset=".776" stop-color="#C70088"/><stop offset=".859" stop-color="#BF00A0"/><stop offset=".936" stop-color="#BB00AF"/><stop offset="1" stop-color="#B900B4"/></linearGradient><clipPath id="clip0_606_31"><path fill="#fff" d="M0 0h40v40H0z"/></clipPath></defs></svg>