<svg width="43" height="43" fill="none" xmlns="http://www.w3.org/2000/svg"><rect width="43" height="43" rx="21.5" fill="url(#paint0_linear_1_2119)"/><g clip-path="url(#clip0_1_2119)"><path d="M22.874 21.512l5.841-5.84a.97.97 0 10-1.374-1.375L21.5 20.138l-5.84-5.84a.97.97 0 10-1.375 1.373l5.84 5.841-5.84 5.841a.97.97 0 101.374 1.374l5.84-5.84 5.842 5.84a.97.97 0 001.374 0 .97.97 0 000-1.374l-5.84-5.84z" fill="#fff"/></g><defs><linearGradient id="paint0_linear_1_2119" x1="43" y1="43" x2="-1.977" y2="40.822" gradientUnits="userSpaceOnUse"><stop stop-color="#864FF1"/><stop offset="1" stop-color="#49B3F7"/></linearGradient><clipPath id="clip0_1_2119"><path fill="#fff" transform="translate(14 14)" d="M0 0h15v15H0z"/></clipPath></defs></svg>