<svg width="71" height="70" fill="none" xmlns="http://www.w3.org/2000/svg"><path fill-rule="evenodd" clip-rule="evenodd" d="M36.277 1.186v1.187a1.186 1.186 0 01-2.373 0V1.186a1.186 1.186 0 012.373 0zm26.315 33.612c1.138 0 2.115.809 2.329 1.926l5.194 26.666a3.56 3.56 0 01-3.501 4.237H41.842C40.832 69.266 37.875 70 35.09 70c-2.814 0-5.8-.752-6.781-2.373H3.567A3.56 3.56 0 01.065 63.39l5.196-26.673a2.373 2.373 0 012.328-1.921h2.296l.169-1.014a2.387 2.387 0 011.998-1.964c.183-.027.372-.052.563-.077l.386-.051a9.548 9.548 0 011.138-8.187 4.822 4.822 0 01-.119-1.012 4.883 4.883 0 012.991-4.499 5.91 5.91 0 017.553-5.31 8.237 8.237 0 016.476-3.19 8.144 8.144 0 014.43 1.316 4.827 4.827 0 017.383.919c.049-.002.096-.006.143-.01.063-.004.127-.01.194-.01a10.095 10.095 0 019.863 8.242 4.855 4.855 0 013.518 6.494 7.237 7.237 0 01.901 5.29l.26.034c.14.017.279.035.418.057a2.385 2.385 0 011.983 1.966l.168 1.01h2.291zM16.483 21.825a2.506 2.506 0 001.125 2.813v-.005a1.186 1.186 0 01-1.224 2.032 4.787 4.787 0 01-.883-.703 7.25 7.25 0 008.203 9.929 7.455 7.455 0 01-.108-1.186 4.129 4.129 0 01-3.684-4.095 1.198 1.198 0 011.187-1.2 1.173 1.173 0 011.186 1.17v.03a1.78 1.78 0 001.686 1.749 7.412 7.412 0 01.679-1.527 1.19 1.19 0 012.042 1.223 5.08 5.08 0 008.193 5.94 1.186 1.186 0 011.33-.33 8.804 8.804 0 003.932.593 8.987 8.987 0 002.048-.376 1.187 1.187 0 01.697 2.268c-.595.176-1.203.303-1.819.38.42.835 1.41 1.603 3.974 2.462A7.573 7.573 0 0148.52 45.3c.366.456.986.622 1.531.411a1.28 1.28 0 00.779-1.177c0-.13-.021-.26-.062-.383-.223-.708-.52-1.39-.885-2.037a9.754 9.754 0 01-2.105.614 1.187 1.187 0 01-.375-2.343 7.562 7.562 0 004.886-2.996 7.309 7.309 0 01-5.48-.506c-.5-.26-.967-.578-1.39-.95a4.07 4.07 0 01-1.49.294 4.114 4.114 0 01-3.697-2.288 1.187 1.187 0 112.123-1.062 1.79 1.79 0 002.577.658c.718-.5.962-1.452.572-2.237a1.187 1.187 0 112.12-1.067 4.041 4.041 0 01-.313 4.176c.182.133.374.253.574.358a5.124 5.124 0 006.05-1.11l.03-.03a5.067 5.067 0 001.003-5.06 4.868 4.868 0 01-.886.554 1.17 1.17 0 01-.503.113 1.186 1.186 0 01-.506-2.255 2.53 2.53 0 001.124-1.04 2.501 2.501 0 00-3.669-3.235 1.187 1.187 0 01-1.423-1.898 4.816 4.816 0 011.535-.765 7.701 7.701 0 00-7.026-5.94c.002.041.007.08.013.12.007.05.014.1.014.15a1.186 1.186 0 11-2.373 0 2.496 2.496 0 00-4.991 0 1.186 1.186 0 11-2.373 0c.007-.53.1-1.056.279-1.556a5.762 5.762 0 00-3.143-.949 5.858 5.858 0 00-5.005 2.856c-.273.464-.48.964-.615 1.486a1.186 1.186 0 01-2.297-.594c.07-.251.153-.5.249-.742a3.703 3.703 0 00-.432-.048 3.607 3.607 0 00-3.518 2.856 4.794 4.794 0 013.365 1.898 1.187 1.187 0 01-1.906 1.415 2.46 2.46 0 00-1.992-1.007 2.506 2.506 0 00-2.406 1.84zm-2.749 12.16c-.453.06-.905.118-1.346.183L8.106 59.932a40.733 40.733 0 0125.798.01V45.084a1.186 1.186 0 012.373 0v14.852a40.726 40.726 0 0125.798 0l-4.283-25.763c-.312-.052-.622-.09-.932-.13h-.001l-.142-.017-.12-.015a7.43 7.43 0 01-.684.956 10.002 10.002 0 01-3.942 6.03c.43.767.782 1.576 1.049 2.414.12.362.181.74.18 1.122a3.653 3.653 0 01-2.217 3.359c-.446.19-.925.287-1.409.287a3.779 3.779 0 01-2.866-1.346 5.258 5.258 0 00-2.416-1.592c-3.48-1.166-5.136-2.483-5.709-4.656-.84-.058-1.67-.208-2.476-.449a7.432 7.432 0 01-11.641-1.973 9.58 9.58 0 01-10.405-4.221l-.327.042zm-11.34 29.86c-.067.345.024.702.248.973.227.276.567.436.925.436h24.502l.354-4.3a39.692 39.692 0 00-19.597 1.243 2.381 2.381 0 01-3.062-2.65L9.487 37.17H7.589L2.393 63.845zm27.958 2.561c.24.376 1.88 1.221 4.738 1.221 2.858 0 4.498-.845 4.739-1.222l-.408-4.93a25.05 25.05 0 00-3.817 1.288 1.18 1.18 0 01-1.026 0 25.362 25.362 0 00-3.818-1.28l-.408 4.923zm36.262-1.152a1.195 1.195 0 001.177-1.41l-5.197-26.672h-1.898l3.72 22.37a2.38 2.38 0 01-3.052 2.657 39.703 39.703 0 00-19.605-1.254l.356 4.31h24.499zM31.074 28.59a1.186 1.186 0 011.76-1.591 4.843 4.843 0 006.245.712 4.729 4.729 0 001.964-3.013 1.186 1.186 0 112.33.446 7.16 7.16 0 01-5.857 5.695 5.884 5.884 0 01-5.527 3.805 1.186 1.186 0 010-2.373 3.534 3.534 0 002.887-1.489 7.154 7.154 0 01-3.802-2.192zm-4.052-2.963c.656 0 1.187-.531 1.187-1.186a3.085 3.085 0 013.085-3.085 1.186 1.186 0 000-2.373 5.464 5.464 0 00-5.458 5.457 1.187 1.187 0 001.186 1.187zM54.56 8.514L53.374 9.7a1.186 1.186 0 101.678 1.678l1.186-1.187a1.186 1.186 0 10-1.678-1.677zm-37.495 2.48a1.186 1.186 0 01-1.934.384l-1.187-1.187a1.187 1.187 0 111.678-1.677L16.808 9.7c.34.34.441.85.257 1.293zm8.037-4.26a1.187 1.187 0 001.096-1.64l-1.363-3.29a1.187 1.187 0 10-2.192.908l1.362 3.289c.184.443.617.732 1.097.732zm20.243-4.93a1.186 1.186 0 112.191.91l-1.362 3.288a1.186 1.186 0 11-2.192-.91l1.363-3.289zm13.86 19.056c.157 0 .311-.031.455-.091l3.288-1.362a1.186 1.186 0 10-.908-2.193l-3.289 1.362a1.186 1.186 0 00.455 2.284zm-47.134-.733a1.187 1.187 0 01-1.55.642l-3.288-1.362a1.186 1.186 0 11.908-2.193l3.288 1.362c.606.251.893.945.642 1.55z" fill="#49B3F7"/></svg>