<svg width="70" height="62" fill="none" xmlns="http://www.w3.org/2000/svg"><path fill-rule="evenodd" clip-rule="evenodd" d="M22.874 28.778c0 .265.092.525.258.732a1.025 1.025 0 11-1.597 1.286 3.228 3.228 0 01-.712-2.018v-2.28a9.744 9.744 0 01-6.717 0v2.28c0 1.29-.776 2.443-1.934 2.948l4.17 2.383a2.271 2.271 0 002.245 0l1.468-.838a1.025 1.025 0 111.018 1.78l-1.468.839c-.66.377-1.4.566-2.14.566-.74 0-1.48-.189-2.14-.566l-5.908-3.376-4.891 1.334a3.366 3.366 0 00-2.475 3.24v4.323c0 .644.523 1.167 1.166 1.167h3.359V39.22a1.025 1.025 0 112.05 0v19.727a1.025 1.025 0 11-2.05 0V44.629H3.217l-.045-.001-.025-.001v12.128a1.025 1.025 0 11-2.051 0V43.827A3.21 3.21 0 010 41.411v-4.323a5.421 5.421 0 013.986-5.219l7.21-1.966c.506-.138.86-.6.86-1.125v-3.32a9.802 9.802 0 01-4.331-7.132h-.124a3.213 3.213 0 01-2.451-1.134 3.229 3.229 0 01-.723-2.616 3.117 3.117 0 011.053-1.849V8.533c0-3.514 2.8-6.386 6.287-6.502a3.218 3.218 0 012.41-1.1h7.672c4.191 0 7.6 3.41 7.6 7.602v4.194a3.119 3.119 0 011.053 1.849 3.229 3.229 0 01-.722 2.616 3.213 3.213 0 01-2.452 1.134h-.123a9.802 9.802 0 01-4.331 7.132v3.32zm-10.889-24.7a4.46 4.46 0 00-4.454 4.455V11.9l.044-.003a2.37 2.37 0 01.143-.006h.98c.642 0 1.166-.523 1.166-1.166a2.875 2.875 0 013.35-2.844L24.21 9.713c.495.083.857.51.857 1.012 0 .643.523 1.166 1.167 1.166h.978c.049 0 .097.003.144.006l.044.002V8.533c0-3.06-2.49-5.55-5.55-5.55h-7.672c-.413 0-.788.218-1.002.586-.183.315-.52.51-.886.51h-.304zM8.697 16.275c.566 0 1.025.46 1.025 1.025 0 4.27 3.474 7.743 7.743 7.742 4.269 0 7.742-3.473 7.742-7.742 0-.566.46-1.025 1.026-1.025h1.095a1.166 1.166 0 001.15-1.37c-.088-.54-.644-.963-1.267-.963h-.978a3.223 3.223 0 01-3.093-2.328l-10.263-1.71a.818.818 0 00-.67.184.816.816 0 00-.293.631 3.222 3.222 0 01-3.217 3.223h-.979c-.622 0-1.179.423-1.267.963a1.167 1.167 0 001.15 1.37h1.096zm6.506-1.166v1.096a1.025 1.025 0 01-2.05 0v-1.096a1.025 1.025 0 012.05 0zm5.549-1.026c-.566 0-1.025.46-1.025 1.026v1.096a1.025 1.025 0 002.05 0v-1.096c0-.567-.459-1.026-1.025-1.026zm-4.622 5.39a2.77 2.77 0 002.667 0 1.026 1.026 0 01.96 1.814 4.877 4.877 0 01-2.293.581 4.861 4.861 0 01-2.293-.581 1.025 1.025 0 11.96-1.813zm49.883 16.78l-3.597-.98c1-.363 1.963-.78 2.88-1.251a2.114 2.114 0 001.018-2.563 13.213 13.213 0 01-.7-4.295v-9.863c0-7.213-5.867-13.081-13.08-13.081s-13.08 5.868-13.08 13.081v7.671a1.025 1.025 0 102.05 0v-1.385c.367.143.762.219 1.166.219h.124c.515 4.92 4.687 8.767 9.74 8.767 1.18 0 2.31-.212 3.358-.596v1.185c0 1.447.975 2.723 2.371 3.104l2.507.683a8.876 8.876 0 01-8.236 5.63 8.896 8.896 0 01-1.965-.22 1.025 1.025 0 10-.454 2c.789.18 1.603.27 2.419.27 4.573 0 8.666-2.897 10.223-7.137l2.716.74a3.365 3.365 0 012.475 3.24v4.323c0 .644-.523 1.167-1.166 1.167h-3.359v-2.263a1.025 1.025 0 00-2.05 0v14.248a1.025 1.025 0 102.05 0v-9.934h3.358l.071-.002v7.744a1.025 1.025 0 102.05 0V48.21A3.21 3.21 0 0070 45.795v-4.323a5.421 5.421 0 00-3.986-5.219zM41.504 17.301c0-6.082 4.948-11.03 11.03-11.03 6.082 0 11.03 4.947 11.03 11.03v.323a3.425 3.425 0 00-1.284-.253h-.978a1.168 1.168 0 01-1.167-1.166c0-.502-.362-.93-.857-1.012l-10.994-1.832a2.875 2.875 0 00-3.35 2.844c0 .643-.524 1.166-1.167 1.166h-.979c-.452 0-.885.092-1.284.253V17.3zm3.288 5.48c0-.567-.46-1.026-1.026-1.026H42.67a1.166 1.166 0 01-1.15-1.37c.089-.54.645-.963 1.268-.963h.979a3.222 3.222 0 003.217-3.223c0-.333.183-.538.292-.63a.816.816 0 01.67-.185l10.264 1.71a3.223 3.223 0 003.092 2.328h.979c.622 0 1.179.423 1.267.963a1.166 1.166 0 01-1.15 1.37h-1.096c-.566 0-1.026.459-1.026 1.025 0 4.27-3.473 7.742-7.742 7.742s-7.742-3.473-7.742-7.742zm17.482 1.025h.124c.404 0 .799-.076 1.166-.22v3.578c0 2.169.442 3.898.812 4.966.01.028-.002.06-.018.068-1.738.894-3.655 1.578-5.7 2.038a1.169 1.169 0 01-.715-1.075v-2.224a9.8 9.8 0 004.33-7.131zm-12-3.217v1.096a1.025 1.025 0 01-2.051 0v-1.096a1.025 1.025 0 112.05 0zm5.548-1.026c-.566 0-1.025.46-1.025 1.026v1.096a1.025 1.025 0 002.05 0v-1.096c0-.567-.458-1.026-1.025-1.026zm-4.62 5.39a2.77 2.77 0 002.667 0 1.025 1.025 0 01.96 1.813 4.86 4.86 0 01-2.293.582 4.861 4.861 0 01-2.293-.582 1.025 1.025 0 01.96-1.813zm-16.201 2.282c-6.609 0-11.985 5.376-11.985 11.985v2.212l.001.006a3.218 3.218 0 003.216 3.19h.13a8.618 8.618 0 002.581 5.217 8.76 8.76 0 001.743 1.314v1.663c0 .52-.334.969-.831 1.118l-3.767 1.13a4.287 4.287 0 00-3.073 4.131v.842a1.025 1.025 0 002.05 0V59.2c0-1.007.648-1.877 1.613-2.167l1.889-.567A9.74 9.74 0 0035 58.877a9.733 9.733 0 006.432-2.41l1.89.567a2.248 2.248 0 011.613 2.167v.842a1.025 1.025 0 002.05 0V59.2c0-1.92-1.235-3.58-3.073-4.131l-3.767-1.13a1.16 1.16 0 01-.831-1.118v-1.725a8.947 8.947 0 002.372-2.085h2.082a3.221 3.221 0 003.217-3.217V39.22c0-6.608-5.376-11.984-11.984-11.984zm4.03 28.46a7.701 7.701 0 01-4.03 1.13 7.703 7.703 0 01-4.03-1.13 3.193 3.193 0 001.767-2.872v-.82a8.736 8.736 0 002.53.294 8.219 8.219 0 001.995-.31v.836c0 1.24.692 2.333 1.767 2.872zm-3.825-5.448a6.597 6.597 0 01-4.834-1.873 6.594 6.594 0 01-2.018-4.77c0-.567-.459-1.026-1.025-1.026h-1.096a1.166 1.166 0 01-1.15-1.37c.088-.54.644-.963 1.267-.963h.979a3.221 3.221 0 003.217-3.217v-.672c0-.011 0-.036.03-.057a.064.064 0 01.063-.01l7.857 2.62a4.603 4.603 0 013.15 4.373c0 3.734-2.889 6.858-6.44 6.965zm9.729-4.452c0 .644-.524 1.167-1.167 1.167h-.843a9.163 9.163 0 00.773-3.682 6.65 6.65 0 00-4.553-6.317l-7.858-2.619a2.127 2.127 0 00-1.91.291 2.126 2.126 0 00-.882 1.721v.672c0 .643-.523 1.166-1.166 1.166h-.979c-.438 0-.86.086-1.25.239.403-5.111 4.688-9.148 9.9-9.148 5.478 0 9.935 4.457 9.935 9.935v6.575zm-13.213-5.409a1.025 1.025 0 010 2.051 1.03 1.03 0 01-1.03-1.025 1.02 1.02 0 011.02-1.026h.01zm6.576 0h-.01c-.567 0-1.02.46-1.02 1.026a1.03 1.03 0 001.03 1.025 1.025 1.025 0 000-2.05zM35 45.866c.55 0 1.084-.21 1.506-.59a1.025 1.025 0 011.373 1.524A4.3 4.3 0 0135 47.916a4.3 4.3 0 01-2.878-1.116 1.025 1.025 0 011.373-1.524c.422.38.957.59 1.505.59z" fill="#49B3F7"/></svg>