<svg width="70" height="68" fill="none" xmlns="http://www.w3.org/2000/svg"><path fill-rule="evenodd" clip-rule="evenodd" d="M69.904 16.977a1.033 1.033 0 00-.204-.294l-1.89-1.97c-.272-.27-.67-.37-1.036-.257l-3.41 1.035-3.997-4.239 8.97-4.995a1.042 1.042 0 00.307-1.677l-2.52-2.52a1.042 1.042 0 00-1.034-.242l-11.368 3.44-3.825-4.06a3.461 3.461 0 00-3.94-.936h-.063a4.21 4.21 0 00-2.291 2.291 3.857 3.857 0 00-.229.842l-.435-.15a1.072 1.072 0 00-.656 2.041c.55.179 1.099.378 1.648.585.166.26.36.499.578.714l4.032 3.825-1.156 3.818c-11.307-8.066-27.012-5.438-35.077 5.87-8.066 11.306-5.438 27.01 5.87 35.076 11.306 8.066 27.01 5.438 35.076-5.869a25.148 25.148 0 00-.552-29.953l1.827-3.297 4.238 3.996-1.02 3.376c-.123.37-.026.779.25 1.056 0 0 2.09 2.07 2.14 2.14a1.035 1.035 0 001.428-.4l2.79-5.116 5.038-2.747c.523-.241.752-.86.51-1.383zM16.62 18.388a22.916 22.916 0 0116.22-6.708c.476 0 .952.014 1.428.043 4.046 3.732 2.854 7.136.142 10.205a50.108 50.108 0 01-5.138 4.738c-2.633 2.24-5.088 4.332-6.016 6.423-1.099 2.483-.292 4.731 4.146 6.694 2.22.984 3.426 1.748 3.897 2.326a.12.12 0 00.02.02l-.049.016a8.87 8.87 0 01-3.368.578c-5.368.228-9.195-3.195-12.168-5.855l-.02-.018-.012-.01c-2.136-1.901-3.91-3.48-5.755-3.494a22.915 22.915 0 016.673-14.958zm39.242 16.256h.007a23.007 23.007 0 01-15.85 21.859 7.486 7.486 0 01.878-4.86 17.694 17.694 0 014.282-4.71c6.587-5.495 6.958-8.563 7.243-10.925.179-1.492.314-2.605 3.262-4.225.118.95.177 1.905.178 2.861zm-1.327-7.72c.319.898.58 1.815.785 2.747-4.49 2.283-4.689 3.91-4.96 6.13v.003c-.243 1.998-.56 4.61-6.508 9.573a19.52 19.52 0 00-4.782 5.303A9.464 9.464 0 0038 57.052c-12.38 2.83-24.71-4.911-27.539-17.29a22.992 22.992 0 01-.564-4.311c1.092 0 2.493 1.248 4.205 2.772l.206.182c3.268 2.919 7.45 6.644 13.68 6.423a10.705 10.705 0 004.281-.814 2.14 2.14 0 001.185-1.341 2.041 2.041 0 00-.514-1.863c-.67-.82-2.14-1.791-4.667-2.919-3.018-1.334-3.675-2.633-3.083-3.96.648-1.515 2.599-3.218 4.778-5.12.223-.194.448-.39.674-.59a51.948 51.948 0 005.36-4.994c2.983-3.397 4.517-7.101 1.484-11.155 3.37.69 6.542 2.131 9.277 4.218l-1.641 5.416c-.121.372-.025.78.25 1.057 0 0 2.662 2.64 2.747 2.69a1.035 1.035 0 001.414-.376c.005-.008.01-.016.013-.024l2.077-3.753a22.943 22.943 0 012.912 5.623zm9.57-7.972l-.921.457c-.206.102-.372.27-.471.478l-.457.927-1.777 3.212-.52-.571 1.034-3.418a1.037 1.037 0 00-.336-1.1l-5.63-5.302a1.035 1.035 0 00-1.492.043c-.07.079-5.138 9.206-5.138 9.206l-1.106-1.106 3.454-11.382a1.035 1.035 0 00-.335-1.107l-4.482-4.217a1.484 1.484 0 01-.407-1.713 2.241 2.241 0 011.164-1.156h.035a1.485 1.485 0 011.67.428l4.282 4.525c.269.288.678.399 1.056.285l11.418-3.447L66.253 5.1l-9.063 4.982a1.034 1.034 0 00-.412 1.403l.013.024c.043.078 5.502 5.887 5.502 5.887.27.286.68.394 1.056.278l3.432-1.034.536.535-3.212 1.777zM34.831 1.739c1 .057 2.005.164 2.99.314a1.073 1.073 0 01-.157 2.14H37.5a36.047 36.047 0 00-2.797-.313 1.072 1.072 0 11.128-2.141zm-5.238.136a1.075 1.075 0 11.207 2.14c-.928.093-1.863.229-2.784.407h-.206l.007.029a1.075 1.075 0 11-.2-2.141 32.495 32.495 0 012.976-.435zM3.497 19.822a1.07 1.07 0 011.912.964 25.741 25.741 0 00-1.149 2.562l-.002.005a1.07 1.07 0 01-1.39.601 1.07 1.07 0 01-.599-1.384c.364-.935.778-1.856 1.228-2.748zm-1.35 6.865a1.07 1.07 0 00-1.42.914 32.34 32.34 0 00-.499 2.962 1.07 1.07 0 00.906 1.198h.136a1.07 1.07 0 001.063-.942c.114-.927.271-1.862.471-2.768a1.07 1.07 0 00-.657-1.364zM13.35 58.423a30.656 30.656 0 01-2.153-1.941 1.07 1.07 0 00-1.506 0 1.07 1.07 0 000 1.512 27.288 27.288 0 002.227 2.02 1.07 1.07 0 001.432-1.591zm-6.87-8.015c.478.8.999 1.585 1.548 2.341a1.07 1.07 0 01-1.726 1.263 32.418 32.418 0 01-1.663-2.505l-.001-.002h-.001a1.07 1.07 0 01.373-1.468l.002-.001a1.07 1.07 0 011.468.372zm-2.184-4.41a30.668 30.668 0 01-.92-2.654 1.07 1.07 0 00-1.356-.721 1.07 1.07 0 00-.714 1.327c.285.957.614 1.913.985 2.855a1.08 1.08 0 002.005-.806zM2.37 38.551v-.003a33.576 33.576 0 01-.228-2.797A1.071 1.071 0 100 35.829c0 1 .114 2.006.242 2.998a1.07 1.07 0 001.035.92h.164a1.07 1.07 0 00.928-1.196zm7.216-25.68a1.077 1.077 0 00-1.52.093 31.453 31.453 0 00-1.87 2.355 1.07 1.07 0 00.863 1.699v.014a1.07 1.07 0 00.871-.442 30.679 30.679 0 011.748-2.198 1.077 1.077 0 00-.092-1.52zm6.077-5.1a1.07 1.07 0 00-1.44-.266 34.647 34.647 0 00-2.399 1.813 1.072 1.072 0 101.37 1.648 28.97 28.97 0 012.241-1.698 1.07 1.07 0 00.228-1.497zm3.586-.866h.005-.022.008a1.07 1.07 0 01-.443-2.04c.9-.45 1.834-.82 2.769-1.163a1.07 1.07 0 11.713 2.012c-.877.321-1.748.685-2.59 1.085a1.07 1.07 0 01-.443.106h.003zm15.584 58.411a1.073 1.073 0 01.136 2.141c-.671.064-1.385.064-2.099.064h-.906a1.07 1.07 0 11.057-2.14c.935.028 1.877.007 2.812-.065zM63.988 41.52a1.071 1.071 0 00-1.302.775 29.114 29.114 0 01-.82 2.683 1.07 1.07 0 00.649 1.349 1.07 1.07 0 001.369-.647v-.003c.336-.942.629-1.905.879-2.854a1.071 1.071 0 00-.775-1.303zm.746-15.196c.25.963.457 1.955.62 2.94a1.07 1.07 0 01-.884 1.227h-.178a1.07 1.07 0 01-1.042-.878c-.157-.92-.35-1.848-.586-2.747a1.07 1.07 0 012.07-.542zm-3.432 22.693a.892.892 0 01.019.01l.01.006.018.01c.51.3.68.956.381 1.465a36.205 36.205 0 01-1.57 2.562 1.073 1.073 0 11-1.755-1.234c.528-.77 1.02-1.577 1.47-2.398a1.07 1.07 0 011.427-.421zm3.431-15.6a1.07 1.07 0 00-1.085 1.056v.164a30.9 30.9 0 01-.128 2.812 1.07 1.07 0 00.97 1.163h.1a1.07 1.07 0 001.078-.992 32.2 32.2 0 00.136-2.997v-.143a1.07 1.07 0 00-1.07-1.063zm-40.327 30.8a22.21 22.21 0 002.74.628 1.075 1.075 0 01-.199 2.141h-.2a43.812 43.812 0 01-3.05-.75 1.07 1.07 0 01.71-2.019zm19.305.303a1.07 1.07 0 00-1.299-.66v.03c-.885.292-1.798.542-2.704.713a1.072 1.072 0 00.47 2.09c.971-.22 1.949-.492 2.898-.799a1.07 1.07 0 00.635-1.374zm-26.398-3.343a51.5 51.5 0 002.49 1.335 1.073 1.073 0 11-.913 1.94 42.556 42.556 0 01-2.661-1.427 1.071 1.071 0 111.084-1.848zm39.488-5.551a1.07 1.07 0 00-1.494.05h.007c-.642.713-1.32 1.34-2.013 1.962a1.072 1.072 0 001.427 1.598c.714-.663 1.47-1.37 2.141-2.098a1.07 1.07 0 00-.068-1.512zm-7.374 4.97a1.07 1.07 0 011.099 1.837 33.694 33.694 0 01-2.605 1.499 1.07 1.07 0 01-.977-1.906 45.236 45.236 0 002.433-1.427v.029a.951.951 0 01.05-.032z" fill="#49B3F7"/></svg>