<svg width="68" height="70" fill="none" xmlns="http://www.w3.org/2000/svg"><path d="M60.104 5.494a1.025 1.025 0 10-1.372 1.525h.001L45.783 19.97l-5.907-5.907c3.146-3.465 4.925-7.74 4.992-11.988A19.404 19.404 0 0154.79 4.27a1.025 1.025 0 10.955-1.815C47.39-1.94 37.212-.293 30.638 6.275c-5.199 5.198-7.535 12.927-5.607 20.456C12.047 25.225.805 35.423.805 48.292a21.645 21.645 0 005.82 14.794 1.025 1.025 0 101.501-1.398 20.06 20.06 0 01-.921-1.062h4.178a2.98 2.98 0 012.839 2.063l1.293 3.978a19.564 19.564 0 01-3.849-1.978 1.025 1.025 0 00-1.133 1.709A21.688 21.688 0 0022.513 70c14.144 0 24.656-13.445 20.982-27.284a21.435 21.435 0 0017.432-6.151c8.661-8.669 8.316-22.847-.823-31.071zM42.809 2.281c-.13 3.605-1.715 7.341-4.387 10.329L32.84 7.026a19.312 19.312 0 019.97-4.745zM31.39 8.477l5.583 5.583c-2.986 2.67-6.72 4.255-10.328 4.385a19.31 19.31 0 014.745-9.968zm-4.952 12.026c4.248-.067 8.524-1.845 11.988-4.99l5.907 5.907L31.39 34.364a19.288 19.288 0 01-4.952-13.861zm9.076 22.487l-4.832 1.57a5.045 5.045 0 00-1.33-1.435l-3.878-2.817a5.034 5.034 0 00-1.935-.855v-5.166a5.035 5.035 0 001.935-.855l1.774-1.29a21.575 21.575 0 008.639 8.268c-.066.276-.522 1.208-.373 2.58zm-6.284 5.132l-1.48 4.558a2.978 2.978 0 01-2.84 2.063h-4.793a2.978 2.978 0 01-2.84-2.063l-1.48-4.558a2.978 2.978 0 011.084-3.338l3.878-2.817a2.99 2.99 0 013.509 0l3.878 2.817a2.978 2.978 0 011.084 3.338zm-3.517-19.225c.178.476.372.944.582 1.403l-2.027 1.473a2.98 2.98 0 01-3.51 0l-3.38-2.456a19.678 19.678 0 018.335-.42zm-10.64 1.202c.494.494.568.465 4.48 3.333.592.43 1.253.713 1.935.855v5.165a5.033 5.033 0 00-1.935.856l-3.877 2.817a5.043 5.043 0 00-1.331 1.435l-4.832-1.57a5.036 5.036 0 00-.218-2.105c-1.495-4.538-1.466-4.661-1.781-5.282a19.749 19.749 0 017.56-5.504zm-9.016 7.456l1.287 3.964a2.981 2.981 0 01-1.084 3.337l-3.38 2.455a19.533 19.533 0 013.177-9.756zm7.397 21.463a5.038 5.038 0 00-2.07-.443c-4.857.02-4.9-.047-5.587.063a19.564 19.564 0 01-2.887-8.891c.622-.316.635-.407 4.555-3.232A5.04 5.04 0 008.88 44.94l4.769 1.55a5.032 5.032 0 00.198 2.265l1.48 4.559c.216.662.558 1.255.995 1.756l-2.868 3.948zm13.733 8.369a19.717 19.717 0 01-9.348 0c-.108-.688-.188-.722-1.666-5.332a5.04 5.04 0 00-1.06-1.831l2.844-3.915c.66.312 1.393.485 2.16.485h4.793c.767 0 1.5-.173 2.16-.485l2.845 3.915a5.039 5.039 0 00-1.061 1.831c-1.48 4.614-1.559 4.647-1.667 5.332zm2.326-.727l1.291-3.971a2.981 2.981 0 012.84-2.063h4.164a19.747 19.747 0 01-8.295 6.034zm9.708-8.023c-.681-.108-.73-.043-5.578-.062a5.04 5.04 0 00-2.07.443l-2.868-3.948a5.038 5.038 0 00.994-1.757l1.482-4.558c.243-.75.303-1.523.198-2.265l4.769-1.55a5.038 5.038 0 001.414 1.575c3.949 2.845 3.933 2.916 4.555 3.232a19.524 19.524 0 01-2.896 8.89zm-.454-13.78a2.984 2.984 0 01-1.084-3.338l.078-.241c1.12.455 2.289.816 3.495 1.077a19.58 19.58 0 01.89 4.956l-3.38-2.455zm7.934-4.092a19.289 19.289 0 01-13.861-4.95L45.782 22.87l5.907 5.906c-3.145 3.464-4.923 7.74-4.99 11.988zm2.058-.206c.13-3.605 1.715-7.342 4.385-10.328l5.583 5.583a19.31 19.31 0 01-9.968 4.745zm11.418-6.195l-5.583-5.583c2.987-2.672 6.724-4.256 10.329-4.387a19.31 19.31 0 01-4.746 9.97zm4.952-12.029c-4.246.067-8.523 1.846-11.989 4.992l-5.906-5.907 12.95-12.95a19.396 19.396 0 014.945 13.865z" fill="#49B3F7"/></svg>