<svg width="68" height="70" fill="none" xmlns="http://www.w3.org/2000/svg"><path fill-rule="evenodd" clip-rule="evenodd" d="M20.447 27.213a67.112 67.112 0 01-2.993 3.284 1.187 1.187 0 01-1.687-.001l-.028-.028c-.47-.478-4.763-4.889-7.842-9.735-3.62 5.043-5.524 10.966-5.524 17.234 0 16.355 13.306 29.661 29.66 29.661 15.51 0 28.277-11.963 29.556-27.147-1.19 1.5-2.18 2.6-2.53 2.98l-.051.056a1.187 1.187 0 01-1.746.002c-.882-.957-8.62-9.498-8.62-15.043 0-4.442 2.423-8.258 5.859-9.865-5.65-6.57-13.747-10.305-22.467-10.305-1.38 0-2.774.1-4.166.297.394 1.25.607 2.585.607 3.973 0 1.047-.258 2.194-.695 3.384l-.085.224c-1.093 2.847-3.174 5.927-5.177 8.499.015.075.023.153.023.233 0 1.363.368 2.634 1.115 3.88.332.57.154 1.293-.415 1.637a1.189 1.189 0 01-1.626-.415c-.54-.907-.93-1.843-1.168-2.805zm6.468-20.866C24.868 2.558 21.016 0 16.61 0 10.07 0 4.746 5.642 4.746 12.576c0 1.78.746 3.847 1.85 5.93A32.125 32.125 0 000 37.967c0 17.664 14.37 32.034 32.034 32.034s32.034-14.37 32.035-32.034c0-.282-.006-.564-.016-.845 1.888-2.818 3.573-6.058 3.573-8.646 0-5.889-4.259-10.678-9.492-10.678-.391 0-.777.026-1.156.078-6.12-7.6-15.17-11.943-24.943-11.943-1.697 0-3.415.14-5.12.414zm-1.808 1.684c-1.558-3.351-4.781-5.657-8.497-5.657-5.233 0-9.491 4.576-9.491 10.204 0 1.499.74 3.377 1.843 5.338.03.04.057.08.081.123 2.277 4.01 5.935 8.14 7.573 9.905a70.496 70.496 0 004.04-4.734c2.766-3.555 5.446-7.782 5.446-10.633a10.753 10.753 0 00-.947-4.421 1.166 1.166 0 01-.048-.125zm36.708 28.132c-1.352 1.968-2.794 3.722-3.683 4.76-2.576-2.988-7.114-8.971-7.114-12.448 0-3.955 2.413-7.38 5.737-8.146l.02-.005a6.145 6.145 0 011.358-.154c3.926 0 7.12 3.727 7.12 8.306 0 2.061-1.6 5.008-3.438 7.687zM10.678 11.865a5.939 5.939 0 005.932 5.932 5.939 5.939 0 005.932-5.932 5.939 5.939 0 00-5.932-5.932 5.939 5.939 0 00-5.932 5.932zm2.373 0a3.564 3.564 0 013.559-3.559 3.564 3.564 0 013.56 3.56 3.564 3.564 0 01-3.56 3.559 3.564 3.564 0 01-3.56-3.56zm45.083 20.17a4.75 4.75 0 01-4.745-4.746 4.75 4.75 0 014.745-4.745 4.75 4.75 0 014.746 4.745 4.751 4.751 0 01-4.746 4.746zm0-7.119a2.375 2.375 0 00-2.372 2.373 2.375 2.375 0 002.372 2.373 2.375 2.375 0 002.373-2.373 2.375 2.375 0 00-2.373-2.373zm-6.537 16.551h.047a1.18 1.18 0 001.187-1.139 1.152 1.152 0 00-.32-.855 1.193 1.193 0 00-.82-.368 74.986 74.986 0 01-4.662-.322c-.664-.058-1.234.405-1.293 1.057-.012.036-.012.083-.012.12 0 .617.463 1.126 1.068 1.185 1.566.155 3.191.261 4.805.322zm-10.785-1.2a.735.735 0 00.226.025c.569 0 1.055-.403 1.162-.962a1.185 1.185 0 00-.937-1.388 51.85 51.85 0 01-4.509-1.08c-.616-.178-1.293.202-1.47.82a.96.96 0 00-.048.32c0 .521.356.997.866 1.14 1.483.425 3.073.805 4.71 1.125zM30.36 37.052c.154.073.32.107.498.107.462 0 .89-.272 1.08-.701a1.179 1.179 0 00-.582-1.565c-1.471-.676-2.8-1.424-3.939-2.23-.51-.37-1.281-.238-1.649.283a1.181 1.181 0 00-.214.688c0 .381.19.748.499.962 0 .012.012.012.012.012 1.245.88 2.693 1.697 4.294 2.444z" fill="#49B3F7"/></svg>